<svg width="278" height="48" viewBox="0 0 278 48" fill="none" xmlns="http://www.w3.org/2000/svg">
<path d="M11.4141 6.08594C11.4141 5.58594 11.2266 5.21875 10.8516 4.98437C10.4922 4.73437 10.0937 4.60937 9.65625 4.60937C8.78125 4.60937 7.92969 4.74219 7.10156 5.00781C6.27344 5.25781 5.53125 5.60937 4.875 6.0625C4.21875 6.5 3.6875 7.03125 3.28125 7.65625C2.89062 8.26562 2.69531 8.92969 2.69531 9.64844C2.69531 10.1484 2.75781 10.5469 2.88281 10.8437C3.02344 11.1406 3.17969 11.3672 3.35156 11.5234C3.52344 11.6641 3.69531 11.7578 3.86719 11.8047C4.05469 11.8359 4.1875 11.8516 4.26562 11.8516C4.65625 11.8516 4.97656 11.7891 5.22656 11.6641C5.47656 11.5234 5.70312 11.3828 5.90625 11.2422C6.10937 11.0859 6.29687 10.9453 6.46875 10.8203C6.65625 10.6797 6.86719 10.6094 7.10156 10.6094C7.28906 10.6094 7.48437 10.6562 7.6875 10.75C7.90625 10.8281 8.10156 10.9609 8.27344 11.1484C8.46094 11.3359 8.61719 11.5859 8.74219 11.8984C8.86719 12.1953 8.92969 12.5625 8.92969 13C8.92969 13.625 8.80469 14.1641 8.55469 14.6172C8.32031 15.0703 8.00781 15.4531 7.61719 15.7656C7.24219 16.0625 6.80469 16.2891 6.30469 16.4453C5.82031 16.5859 5.33594 16.6562 4.85156 16.6562C4.10156 16.6562 3.42187 16.5312 2.8125 16.2812C2.21875 16.0156 1.71094 15.6562 1.28906 15.2031C0.867187 14.75 0.546875 14.2187 0.328125 13.6094C0.109375 13 0 12.3516 0 11.6641C0 9.71094 0.492187 8.10937 1.47656 6.85937C2.46094 5.59375 3.79687 4.60156 5.48437 3.88281C7.1875 3.14844 9.16406 2.64844 11.4141 2.38281C13.6797 2.10156 16.0859 1.96094 18.6328 1.96094C21.5391 1.96094 24.1641 2.25781 26.5078 2.85156C28.8672 3.42969 30.8828 4.375 32.5547 5.6875C34.2266 7 35.5156 8.71875 36.4219 10.8437C37.3281 12.9531 37.7812 15.5312 37.7812 18.5781C37.7812 21.625 37.2969 24.3281 36.3281 26.6875C35.375 29.0469 34.0625 31.0312 32.3906 32.6406C30.7344 34.2344 28.7812 35.4531 26.5312 36.2969C24.2969 37.125 21.8984 37.5391 19.3359 37.5391C17.6328 37.5391 16.2578 37.4531 15.2109 37.2812C14.1797 37.125 13.3828 36.8516 12.8203 36.4609C12.2578 36.0547 11.8828 35.5234 11.6953 34.8672C11.5078 34.1953 11.4141 33.3516 11.4141 32.3359V6.08594ZM19.1484 32.5469C19.1484 33.4375 19.3437 34.0781 19.7344 34.4687C20.1406 34.8437 20.7344 35.0312 21.5156 35.0312C22.6875 35.0312 23.7656 34.7734 24.75 34.2578C25.75 33.7422 26.6094 32.8594 27.3281 31.6094C28.0469 30.3437 28.6094 28.6641 29.0156 26.5703C29.4219 24.4766 29.625 21.8437 29.625 18.6719C29.625 16.5469 29.4922 14.7109 29.2266 13.1641C28.9766 11.6016 28.6406 10.2812 28.2187 9.20312C27.7969 8.10937 27.3125 7.22656 26.7656 6.55469C26.2344 5.86719 25.6875 5.33594 25.125 4.96094C24.5625 4.57031 24.0078 4.3125 23.4609 4.1875C22.9297 4.04687 22.4531 3.97656 22.0312 3.97656C21.0156 3.97656 20.2812 4.20312 19.8281 4.65625C19.375 5.10937 19.1484 5.92187 19.1484 7.09375V32.5469ZM53.1797 24.8594C53.1797 24.4687 53.0547 24.1719 52.8047 23.9687C52.5547 23.7656 52.2344 23.6641 51.8437 23.6641C51.2969 23.6641 50.7734 23.7891 50.2734 24.0391C49.7891 24.2891 49.3594 24.6562 48.9844 25.1406C48.6094 25.625 48.3125 26.2266 48.0937 26.9453C47.875 27.6484 47.7656 28.4687 47.7656 29.4062C47.7656 30.3125 47.8281 31.0625 47.9531 31.6562C48.0937 32.25 48.2734 32.7266 48.4922 33.0859C48.7266 33.4297 48.9922 33.6719 49.2891 33.8125C49.5859 33.9531 49.8984 34.0234 50.2266 34.0234C50.6328 34.0234 51.0156 33.9219 51.375 33.7187C51.7344 33.5 52.0469 33.2266 52.3125 32.8984C52.5781 32.5703 52.7891 32.2031 52.9453 31.7969C53.1016 31.3906 53.1797 30.9844 53.1797 30.5781V24.8594ZM49.4531 14.5937C48.9219 14.5937 48.4297 14.6562 47.9766 14.7812C47.5234 14.9062 47.1328 15.0625 46.8047 15.25C46.4766 15.4375 46.2187 15.6484 46.0312 15.8828C45.8437 16.1016 45.75 16.3125 45.75 16.5156C45.75 16.75 45.8672 16.9219 46.1016 17.0312C46.3516 17.125 46.625 17.2422 46.9219 17.3828C47.2187 17.5078 47.4844 17.6953 47.7187 17.9453C47.9687 18.1797 48.0937 18.5469 48.0937 19.0469C48.0937 19.375 48.0234 19.6797 47.8828 19.9609C47.7578 20.2266 47.5781 20.4687 47.3437 20.6875C47.125 20.8906 46.8594 21.0547 46.5469 21.1797C46.25 21.2891 45.9375 21.3437 45.6094 21.3437C44.7344 21.3437 44.0234 21.0469 43.4766 20.4531C42.9453 19.8594 42.6797 19.0703 42.6797 18.0859C42.6797 17.1328 42.9297 16.3203 43.4297 15.6484C43.9297 14.9609 44.5781 14.3984 45.375 13.9609C46.1875 13.5234 47.1016 13.2031 48.1172 13C49.1328 12.7812 50.1484 12.6719 51.1641 12.6719C52.3828 12.6719 53.5469 12.8047 54.6562 13.0703C55.7656 13.3359 56.7422 13.7578 57.5859 14.3359C58.4453 14.9141 59.125 15.6484 59.625 16.5391C60.1406 17.4297 60.3984 18.5078 60.3984 19.7734V33.0156C60.3984 33.1562 60.4062 33.3125 60.4219 33.4844C60.4375 33.6562 60.4766 33.8125 60.5391 33.9531C60.6016 34.0937 60.6953 34.2109 60.8203 34.3047C60.9453 34.3984 61.125 34.4453 61.3594 34.4453C61.6406 34.4453 61.8984 34.3437 62.1328 34.1406C62.3828 33.9219 62.6016 33.7031 62.7891 33.4844L63.375 33.9766C63.1406 34.3047 62.8594 34.6641 62.5312 35.0547C62.2031 35.4453 61.8047 35.8125 61.3359 36.1562C60.8672 36.5 60.3203 36.7891 59.6953 37.0234C59.0703 37.2578 58.3594 37.375 57.5625 37.375C56.5781 37.375 55.7031 37.0859 54.9375 36.5078C54.1719 35.9141 53.6719 35.0078 53.4375 33.7891C52.9375 34.4609 52.4141 35.0234 51.8672 35.4766C51.3359 35.9297 50.7891 36.2969 50.2266 36.5781C49.6641 36.8594 49.0937 37.0625 48.5156 37.1875C47.9531 37.3125 47.3828 37.375 46.8047 37.375C46.0547 37.375 45.3281 37.2578 44.625 37.0234C43.9219 36.7891 43.2891 36.4219 42.7266 35.9219C42.1797 35.4062 41.7344 34.7422 41.3906 33.9297C41.0625 33.1172 40.8984 32.125 40.8984 30.9531C40.8984 29.5312 41.1797 28.3672 41.7422 27.4609C42.3047 26.5547 43.0391 25.7969 43.9453 25.1875C44.8672 24.5625 45.9062 24.0312 47.0625 23.5937C48.2344 23.1562 49.4297 22.6953 50.6484 22.2109C51.5547 21.8516 52.2109 21.3203 52.6172 20.6172C53.0391 19.8984 53.25 19.1641 53.25 18.4141C53.25 17.2578 52.9062 16.3359 52.2187 15.6484C51.5469 14.9453 50.625 14.5937 49.4531 14.5937ZM74.0156 34.8906C74.0156 35.0937 73.9766 35.3437 73.8984 35.6406C73.8359 35.9219 73.6719 36.1953 73.4062 36.4609C73.1562 36.7109 72.7891 36.9219 72.3047 37.0937C71.8203 37.2812 71.1641 37.375 70.3359 37.375C69.5078 37.375 68.8594 37.2734 68.3906 37.0703C67.9219 36.8828 67.5703 36.6562 67.3359 36.3906C67.1016 36.125 66.9531 35.8516 66.8906 35.5703C66.8437 35.2891 66.8203 35.0625 66.8203 34.8906V16.7969C66.8203 16.3437 66.7109 15.9531 66.4922 15.625C66.2891 15.2812 65.9375 15.1094 65.4375 15.1094C65.1719 15.1094 64.9453 15.1562 64.7578 15.25C64.5703 15.3437 64.3672 15.4766 64.1484 15.6484L63.6562 15.0625C64.0156 14.7656 64.4141 14.4766 64.8516 14.1953C65.3047 13.8984 65.7891 13.6406 66.3047 13.4219C66.8203 13.2031 67.375 13.0234 67.9687 12.8828C68.5625 12.7422 69.1875 12.6719 69.8437 12.6719C70.8594 12.6719 71.6484 12.8125 72.2109 13.0937C72.7734 13.3594 73.1875 13.6953 73.4531 14.1016C73.7187 14.4922 73.875 14.9141 73.9219 15.3672C73.9844 15.8203 74.0156 16.2187 74.0156 16.5625V34.8906ZM66.0937 7.32812C66.0937 6.89062 66.1875 6.47656 66.375 6.08594C66.5781 5.67969 66.8516 5.32812 67.1953 5.03125C67.5547 4.73437 67.9609 4.5 68.4141 4.32812C68.8828 4.15625 69.3906 4.07031 69.9375 4.07031C70.4687 4.07031 70.9609 4.15625 71.4141 4.32812C71.8828 4.5 72.2891 4.73437 72.6328 5.03125C72.9766 5.32812 73.2422 5.67969 73.4297 6.08594C73.6328 6.47656 73.7344 6.89062 73.7344 7.32812C73.7344 7.78125 73.6328 8.20312 73.4297 8.59375C73.2422 8.98437 72.9766 9.32812 72.6328 9.625C72.2891 9.90625 71.8828 10.1328 71.4141 10.3047C70.9609 10.4766 70.4687 10.5625 69.9375 10.5625C69.3906 10.5625 68.8828 10.4766 68.4141 10.3047C67.9609 10.1328 67.5547 9.90625 67.1953 9.625C66.8516 9.32812 66.5781 8.98437 66.375 8.59375C66.1875 8.20312 66.0937 7.78125 66.0937 7.32812ZM87.1875 34.9375C87.1875 35.1406 87.1484 35.3828 87.0703 35.6641C87.0078 35.9453 86.8437 36.2109 86.5781 36.4609C86.3281 36.7109 85.9531 36.9219 85.4531 37.0937C84.9687 37.2812 84.3125 37.375 83.4844 37.375C82.6562 37.375 82.0078 37.2734 81.5391 37.0703C81.0703 36.8828 80.7187 36.6562 80.4844 36.3906C80.2656 36.125 80.125 35.8516 80.0625 35.5703C80.0156 35.2891 79.9922 35.0625 79.9922 34.8906V4.65625C79.9922 4.20312 79.8828 3.8125 79.6641 3.48437C79.4609 3.14062 79.1094 2.96875 78.6094 2.96875C78.3437 2.96875 78.1094 3.01562 77.9062 3.10937C77.7187 3.1875 77.5156 3.3125 77.2969 3.48437L76.8281 2.92187C77.1875 2.625 77.5859 2.33594 78.0234 2.05469C78.4609 1.75781 78.9375 1.5 79.4531 1.28125C79.9844 1.0625 80.5469 0.882812 81.1406 0.742187C81.7344 0.601562 82.3594 0.531249 83.0156 0.531249C84.0312 0.531249 84.8203 0.671874 85.3828 0.953124C85.9453 1.21875 86.3594 1.55469 86.625 1.96094C86.8906 2.35156 87.0469 2.77344 87.0937 3.22656C87.1562 3.66406 87.1875 4.05469 87.1875 4.39844V34.9375ZM111.797 16.3516C111.797 19.2109 111.516 21.9766 110.953 24.6484C110.406 27.3047 109.641 29.8047 108.656 32.1484C107.687 34.4766 106.531 36.6016 105.187 38.5234C103.844 40.4609 102.383 42.1172 100.805 43.4922C99.2266 44.8672 97.5547 45.9375 95.7891 46.7031C94.0391 47.4687 92.2656 47.8516 90.4687 47.8516C89.0937 47.8516 88.0312 47.6172 87.2812 47.1484C86.5312 46.6953 86.1562 46.0781 86.1562 45.2969C86.1562 45 86.2031 44.7109 86.2969 44.4297C86.3906 44.1484 86.5156 43.8984 86.6719 43.6797C86.8281 43.4609 87.0156 43.2812 87.2344 43.1406C87.4531 43.0156 87.6875 42.9531 87.9375 42.9531C88.2344 42.9531 88.4844 43.1016 88.6875 43.3984C88.875 43.6953 89.0781 44.0156 89.2969 44.3594C89.5156 44.7187 89.7812 45.0469 90.0937 45.3437C90.4062 45.6406 90.8359 45.7891 91.3828 45.7891C92.0859 45.7891 92.8203 45.6641 93.5859 45.4141C94.3516 45.1797 95.1172 44.8359 95.8828 44.3828C96.6641 43.9297 97.4375 43.375 98.2031 42.7187C98.9844 42.0781 99.75 41.3594 100.5 40.5625C100.062 38.9844 99.5547 37.2656 98.9766 35.4062C98.4141 33.5312 97.8125 31.6484 97.1719 29.7578C96.5469 27.8672 95.8984 26.0469 95.2266 24.2969C94.5703 22.5312 93.9219 20.9687 93.2812 19.6094C92.6562 18.25 92.0469 17.1641 91.4531 16.3516C90.875 15.5234 90.3594 15.1094 89.9062 15.1094C89.6094 15.1094 89.3828 15.1562 89.2266 15.25C89.0547 15.3437 88.8594 15.4766 88.6406 15.6484L88.1719 15.0625C88.4844 14.7969 88.8125 14.5234 89.1562 14.2422C89.5 13.9609 89.9062 13.7031 90.375 13.4687C90.8437 13.2344 91.3906 13.0469 92.0156 12.9062C92.6406 12.75 93.3906 12.6719 94.2656 12.6719C95.2187 12.6719 96.1016 12.8906 96.9141 13.3281C97.7422 13.75 98.4922 14.5391 99.1641 15.6953C99.6484 16.5547 100.148 17.5859 100.664 18.7891C101.195 19.9922 101.727 21.3359 102.258 22.8203C102.789 24.3047 103.32 25.9141 103.852 27.6484C104.398 29.3672 104.945 31.1719 105.492 33.0625C106.461 31.0312 107.242 28.8828 107.836 26.6172C108.43 24.3359 108.727 21.9922 108.727 19.5859C108.727 18.7266 108.672 17.9922 108.562 17.3828C108.453 16.7734 108.328 16.2578 108.187 15.8359C108.047 15.3984 107.922 15.0312 107.812 14.7344C107.703 14.4219 107.648 14.1484 107.648 13.9141C107.648 13.6797 107.742 13.4844 107.93 13.3281C108.117 13.1562 108.344 13.0234 108.609 12.9297C108.875 12.8359 109.141 12.7734 109.406 12.7422C109.687 12.6953 109.922 12.6719 110.109 12.6719C110.531 12.6719 110.852 12.7578 111.07 12.9297C111.305 13.1016 111.477 13.3516 111.586 13.6797C111.695 13.9922 111.758 14.375 111.773 14.8281C111.789 15.2812 111.797 15.7891 111.797 16.3516ZM143.672 32.7812C143.672 34.9062 143.281 36.7578 142.5 38.3359C141.734 39.9141 140.68 41.2266 139.336 42.2734C137.992 43.3359 136.406 44.125 134.578 44.6406C132.766 45.1719 130.82 45.4375 128.742 45.4375C127.945 45.4375 127.18 45.3672 126.445 45.2266C125.711 45.1016 125.062 44.9219 124.5 44.6875C123.937 44.4531 123.492 44.1719 123.164 43.8437C122.82 43.5312 122.648 43.1875 122.648 42.8125C122.648 42.5312 122.687 42.2422 122.766 41.9453C122.844 41.6641 122.961 41.4062 123.117 41.1719C123.273 40.9375 123.469 40.7422 123.703 40.5859C123.922 40.4297 124.172 40.3516 124.453 40.3516C124.625 40.3516 124.773 40.4375 124.898 40.6094C125.039 40.7812 125.18 40.9922 125.32 41.2422C125.461 41.5078 125.617 41.7891 125.789 42.0859C125.977 42.3828 126.211 42.6562 126.492 42.9062C126.789 43.1719 127.141 43.3906 127.547 43.5625C127.953 43.7344 128.461 43.8203 129.07 43.8203C130.273 43.8203 131.305 43.6016 132.164 43.1641C133.039 42.7266 133.758 42.1094 134.32 41.3125C134.883 40.5156 135.297 39.5625 135.562 38.4531C135.844 37.3594 135.984 36.1562 135.984 34.8437V5.71094C135.984 5.36719 135.945 5.09375 135.867 4.89062C135.789 4.6875 135.68 4.53125 135.539 4.42187C135.398 4.29687 135.227 4.21875 135.023 4.1875C134.836 4.14062 134.625 4.11719 134.391 4.11719C134.047 4.11719 133.617 4.17187 133.102 4.28125C132.602 4.39062 132.07 4.55469 131.508 4.77344C130.945 4.99219 130.375 5.26562 129.797 5.59375C129.234 5.90625 128.727 6.26562 128.273 6.67187C127.836 7.07812 127.477 7.53125 127.195 8.03125C126.914 8.53125 126.773 9.07031 126.773 9.64844C126.773 10.1484 126.836 10.5469 126.961 10.8437C127.102 11.1406 127.258 11.3672 127.43 11.5234C127.602 11.6641 127.773 11.7578 127.945 11.8047C128.133 11.8359 128.266 11.8516 128.344 11.8516C128.734 11.8516 129.055 11.7891 129.305 11.6641C129.555 11.5234 129.781 11.3828 129.984 11.2422C130.187 11.0859 130.375 10.9453 130.547 10.8203C130.734 10.6797 130.945 10.6094 131.18 10.6094C131.367 10.6094 131.562 10.6562 131.766 10.75C131.984 10.8281 132.18 10.9609 132.352 11.1484C132.539 11.3359 132.695 11.5859 132.82 11.8984C132.945 12.1953 133.008 12.5625 133.008 13C133.008 13.625 132.883 14.1641 132.633 14.6172C132.398 15.0703 132.086 15.4531 131.695 15.7656C131.32 16.0625 130.883 16.2891 130.383 16.4453C129.898 16.5859 129.414 16.6562 128.93 16.6562C128.18 16.6562 127.5 16.5312 126.891 16.2812C126.297 16.0156 125.789 15.6562 125.367 15.2031C124.945 14.75 124.625 14.2187 124.406 13.6094C124.187 13 124.078 12.3516 124.078 11.6641C124.078 10.5859 124.273 9.60156 124.664 8.71094C125.055 7.80469 125.586 6.99219 126.258 6.27344C126.945 5.55469 127.742 4.92969 128.648 4.39844C129.57 3.85156 130.562 3.39844 131.625 3.03906C132.687 2.67969 133.797 2.41406 134.953 2.24219C136.109 2.05469 137.266 1.96094 138.422 1.96094C139.703 1.96094 140.695 2.08594 141.398 2.33594C142.117 2.57031 142.641 2.85937 142.969 3.20312C143.312 3.54687 143.516 3.90625 143.578 4.28125C143.641 4.65625 143.672 4.96875 143.672 5.21875V32.7812ZM148.664 25C148.664 22.9531 148.961 21.1641 149.555 19.6328C150.148 18.0859 150.937 16.7969 151.922 15.7656C152.922 14.7344 154.078 13.9609 155.391 13.4453C156.703 12.9297 158.078 12.6719 159.516 12.6719C160.953 12.6719 162.328 12.9141 163.641 13.3984C164.953 13.8672 166.102 14.5937 167.086 15.5781C168.086 16.5625 168.883 17.8125 169.477 19.3281C170.07 20.8281 170.367 22.6094 170.367 24.6719C170.367 26.7187 170.07 28.5312 169.477 30.1094C168.883 31.6875 168.086 33.0156 167.086 34.0937C166.102 35.1719 164.953 35.9922 163.641 36.5547C162.328 37.1016 160.953 37.375 159.516 37.375C158.078 37.375 156.703 37.1172 155.391 36.6016C154.078 36.0703 152.922 35.2891 151.922 34.2578C150.937 33.2266 150.148 31.9375 149.555 30.3906C148.961 28.8437 148.664 27.0469 148.664 25ZM163.078 24.7656C163.078 23.5156 163.031 22.3125 162.937 21.1562C162.859 19.9844 162.695 18.9453 162.445 18.0391C162.195 17.1328 161.836 16.4141 161.367 15.8828C160.898 15.3359 160.281 15.0625 159.516 15.0625C158.75 15.0625 158.133 15.3516 157.664 15.9297C157.195 16.4922 156.836 17.2422 156.586 18.1797C156.336 19.1016 156.172 20.1562 156.094 21.3437C156.016 22.5312 155.977 23.75 155.977 25C155.977 26.25 156.016 27.4766 156.094 28.6797C156.172 29.8672 156.336 30.9297 156.586 31.8672C156.836 32.8047 157.195 33.5625 157.664 34.1406C158.133 34.7031 158.75 34.9844 159.516 34.9844C160.281 34.9844 160.898 34.6875 161.367 34.0937C161.836 33.5 162.195 32.7187 162.445 31.75C162.695 30.7812 162.859 29.6875 162.937 28.4687C163.031 27.25 163.078 26.0156 163.078 24.7656ZM195.258 32.9219C195.258 33.0625 195.266 33.2187 195.281 33.3906C195.297 33.5469 195.336 33.7031 195.398 33.8594C195.461 34 195.555 34.1172 195.68 34.2109C195.805 34.3047 195.984 34.3516 196.219 34.3516C196.516 34.3516 196.781 34.25 197.016 34.0469C197.25 33.8281 197.469 33.6094 197.672 33.3906L198.234 33.8828C198 34.2109 197.703 34.5781 197.344 34.9844C197 35.375 196.578 35.75 196.078 36.1094C195.578 36.4687 195.008 36.7656 194.367 37C193.727 37.25 193 37.375 192.187 37.375C191.5 37.375 190.898 37.2812 190.383 37.0937C189.883 36.9219 189.453 36.6875 189.094 36.3906C188.75 36.0781 188.492 35.7187 188.32 35.3125C188.148 34.8906 188.062 34.4453 188.062 33.9766V32.9219C187.281 33.7656 186.461 34.5078 185.602 35.1484C185.227 35.4297 184.828 35.7031 184.406 35.9687C183.984 36.2344 183.547 36.4766 183.094 36.6953C182.641 36.8984 182.172 37.0625 181.687 37.1875C181.203 37.3125 180.719 37.375 180.234 37.375C179.297 37.375 178.492 37.2109 177.82 36.8828C177.164 36.5391 176.633 36.0937 176.227 35.5469C175.82 35 175.523 34.3828 175.336 33.6953C175.148 33.0078 175.055 32.3203 175.055 31.6328V17.125C175.055 16.9844 175.047 16.8359 175.031 16.6797C175.016 16.5078 174.977 16.3516 174.914 16.2109C174.852 16.0547 174.758 15.9297 174.633 15.8359C174.508 15.7422 174.328 15.6953 174.094 15.6953C173.812 15.6953 173.547 15.8047 173.297 16.0234C173.062 16.2266 172.852 16.4375 172.664 16.6562L172.078 16.1641C172.312 15.8359 172.602 15.4766 172.945 15.0859C173.305 14.6797 173.734 14.2969 174.234 13.9375C174.734 13.5781 175.305 13.2812 175.945 13.0469C176.602 12.7969 177.328 12.6719 178.125 12.6719C178.812 12.6719 179.414 12.7656 179.93 12.9531C180.445 13.125 180.875 13.3672 181.219 13.6797C181.562 13.9766 181.82 14.3359 181.992 14.7578C182.164 15.1641 182.25 15.6016 182.25 16.0703V31.7266C182.25 31.9453 182.281 32.1719 182.344 32.4062C182.422 32.625 182.523 32.8281 182.648 33.0156C182.789 33.2031 182.961 33.3594 183.164 33.4844C183.367 33.5937 183.609 33.6484 183.891 33.6484C184.344 33.6484 184.797 33.5312 185.25 33.2969C185.703 33.0625 186.117 32.7891 186.492 32.4766C186.867 32.1484 187.187 31.8281 187.453 31.5156C187.734 31.2031 187.937 30.9687 188.062 30.8125V17.125C188.062 16.9844 188.055 16.8359 188.039 16.6797C188.023 16.5078 187.984 16.3516 187.922 16.2109C187.859 16.0547 187.766 15.9297 187.641 15.8359C187.516 15.7422 187.336 15.6953 187.102 15.6953C186.82 15.6953 186.555 15.8047 186.305 16.0234C186.07 16.2266 185.859 16.4375 185.672 16.6562L185.086 16.1641C185.32 15.8359 185.609 15.4766 185.953 15.0859C186.312 14.6797 186.742 14.2969 187.242 13.9375C187.742 13.5781 188.312 13.2812 188.953 13.0469C189.609 12.7969 190.336 12.6719 191.133 12.6719C191.82 12.6719 192.422 12.7656 192.937 12.9531C193.453 13.125 193.883 13.3672 194.227 13.6797C194.57 13.9766 194.828 14.3359 195 14.7578C195.172 15.1641 195.258 15.6016 195.258 16.0703V32.9219ZM208.922 17.6172C209.516 16.7109 210.148 15.8906 210.82 15.1562C211.102 14.8437 211.406 14.5391 211.734 14.2422C212.062 13.9453 212.398 13.6797 212.742 13.4453C213.102 13.2109 213.469 13.0234 213.844 12.8828C214.219 12.7422 214.594 12.6719 214.969 12.6719C215.766 12.6719 216.391 12.9141 216.844 13.3984C217.297 13.8672 217.523 14.5312 217.523 15.3906C217.523 15.9219 217.477 16.4375 217.383 16.9375C217.305 17.4219 217.141 18.0156 216.891 18.7187H216.234C216.141 18.2344 215.922 17.8359 215.578 17.5234C215.234 17.1953 214.734 17.0312 214.078 17.0312C213.594 17.0312 213.117 17.125 212.648 17.3125C212.18 17.4844 211.719 17.7031 211.266 17.9687C210.828 18.2344 210.406 18.5234 210 18.8359C209.609 19.1484 209.25 19.4453 208.922 19.7266V34.9375C208.922 35.1406 208.891 35.3828 208.828 35.6641C208.766 35.9453 208.609 36.2109 208.359 36.4609C208.125 36.7109 207.766 36.9219 207.281 37.0937C206.812 37.2812 206.164 37.375 205.336 37.375C204.508 37.375 203.852 37.2734 203.367 37.0703C202.898 36.8828 202.539 36.6562 202.289 36.3906C202.039 36.125 201.883 35.8516 201.82 35.5703C201.758 35.2891 201.727 35.0625 201.727 34.8906V16.7969C201.727 16.3437 201.617 15.9531 201.398 15.625C201.195 15.2812 200.844 15.1094 200.344 15.1094C200.078 15.1094 199.852 15.1562 199.664 15.25C199.477 15.3437 199.273 15.4766 199.055 15.6484L198.562 15.0625C198.922 14.7656 199.32 14.4766 199.758 14.1953C200.211 13.8984 200.695 13.6406 201.211 13.4219C201.727 13.2031 202.281 13.0234 202.875 12.8828C203.469 12.7422 204.094 12.6719 204.75 12.6719C205.422 12.6719 205.992 12.7656 206.461 12.9531C206.945 13.125 207.336 13.3594 207.633 13.6562C207.945 13.9375 208.187 14.2578 208.359 14.6172C208.531 14.9766 208.656 15.3437 208.734 15.7187C208.828 16.0781 208.883 16.4297 208.898 16.7734C208.914 17.1016 208.922 17.3828 208.922 17.6172ZM234.305 25.3281C234.305 23.3594 234.211 21.7891 234.023 20.6172C233.852 19.4297 233.617 18.5312 233.32 17.9219C233.023 17.2969 232.695 16.8906 232.336 16.7031C231.977 16.5 231.609 16.3984 231.234 16.3984C230.781 16.3984 230.375 16.5234 230.016 16.7734C229.672 17.0078 229.367 17.2812 229.102 17.5937C228.852 17.9062 228.633 18.2187 228.445 18.5312C228.273 18.8437 228.125 19.0781 228 19.2344V34.8906C228 35.0937 227.969 35.3437 227.906 35.6406C227.844 35.9219 227.687 36.1953 227.437 36.4609C227.203 36.7109 226.844 36.9219 226.359 37.0937C225.891 37.2812 225.242 37.375 224.414 37.375C223.586 37.375 222.93 37.2734 222.445 37.0703C221.977 36.8828 221.617 36.6562 221.367 36.3906C221.117 36.125 220.961 35.8516 220.898 35.5703C220.836 35.2891 220.805 35.0625 220.805 34.8906V16.7969C220.805 16.3437 220.695 15.9531 220.477 15.625C220.273 15.2812 219.922 15.1094 219.422 15.1094C219.156 15.1094 218.93 15.1562 218.742 15.25C218.555 15.3437 218.352 15.4766 218.133 15.6484L217.641 15.0625C218 14.7656 218.398 14.4766 218.836 14.1953C219.289 13.8984 219.773 13.6406 220.289 13.4219C220.805 13.2031 221.359 13.0234 221.953 12.8828C222.547 12.7422 223.172 12.6719 223.828 12.6719C224.844 12.6719 225.633 12.8437 226.195 13.1875C226.758 13.5156 227.172 13.9141 227.437 14.3828C227.703 14.8516 227.859 15.3437 227.906 15.8594C227.969 16.3594 228 16.7812 228 17.125C228.578 16.2969 229.234 15.5547 229.969 14.8984C230.266 14.6172 230.594 14.3437 230.953 14.0781C231.328 13.8125 231.719 13.5781 232.125 13.375C232.547 13.1562 232.984 12.9844 233.437 12.8594C233.906 12.7344 234.383 12.6719 234.867 12.6719C235.93 12.6719 236.867 12.875 237.68 13.2812C238.508 13.6875 239.203 14.3672 239.766 15.3203C240.328 16.2734 240.758 17.5391 241.055 19.1172C241.352 20.6797 241.5 22.625 241.5 24.9531C241.5 27.2187 241.297 29.1875 240.891 30.8594C240.484 32.5312 239.953 33.9531 239.297 35.125C238.641 36.2969 237.898 37.25 237.07 37.9844C236.242 38.7344 235.406 39.3203 234.562 39.7422C233.719 40.1641 232.906 40.4531 232.125 40.6094C231.359 40.7812 230.695 40.875 230.133 40.8906L229.875 39.9297C230.344 39.8203 230.773 39.6484 231.164 39.4141C231.57 39.1797 231.937 38.8359 232.266 38.3828C232.594 37.9297 232.883 37.3594 233.133 36.6719C233.383 35.9687 233.594 35.0937 233.766 34.0469C233.953 33 234.086 31.7656 234.164 30.3437C234.258 28.9062 234.305 27.2344 234.305 25.3281ZM256.898 24.8594C256.898 24.4687 256.773 24.1719 256.523 23.9687C256.273 23.7656 255.953 23.6641 255.562 23.6641C255.016 23.6641 254.492 23.7891 253.992 24.0391C253.508 24.2891 253.078 24.6562 252.703 25.1406C252.328 25.625 252.031 26.2266 251.812 26.9453C251.594 27.6484 251.484 28.4687 251.484 29.4062C251.484 30.3125 251.547 31.0625 251.672 31.6562C251.812 32.25 251.992 32.7266 252.211 33.0859C252.445 33.4297 252.711 33.6719 253.008 33.8125C253.305 33.9531 253.617 34.0234 253.945 34.0234C254.352 34.0234 254.734 33.9219 255.094 33.7187C255.453 33.5 255.766 33.2266 256.031 32.8984C256.297 32.5703 256.508 32.2031 256.664 31.7969C256.82 31.3906 256.898 30.9844 256.898 30.5781V24.8594ZM253.172 14.5937C252.641 14.5937 252.148 14.6562 251.695 14.7812C251.242 14.9062 250.852 15.0625 250.523 15.25C250.195 15.4375 249.937 15.6484 249.75 15.8828C249.562 16.1016 249.469 16.3125 249.469 16.5156C249.469 16.75 249.586 16.9219 249.82 17.0312C250.07 17.125 250.344 17.2422 250.641 17.3828C250.937 17.5078 251.203 17.6953 251.437 17.9453C251.687 18.1797 251.812 18.5469 251.812 19.0469C251.812 19.375 251.742 19.6797 251.602 19.9609C251.477 20.2266 251.297 20.4687 251.062 20.6875C250.844 20.8906 250.578 21.0547 250.266 21.1797C249.969 21.2891 249.656 21.3437 249.328 21.3437C248.453 21.3437 247.742 21.0469 247.195 20.4531C246.664 19.8594 246.398 19.0703 246.398 18.0859C246.398 17.1328 246.648 16.3203 247.148 15.6484C247.648 14.9609 248.297 14.3984 249.094 13.9609C249.906 13.5234 250.82 13.2031 251.836 13C252.852 12.7812 253.867 12.6719 254.883 12.6719C256.102 12.6719 257.266 12.8047 258.375 13.0703C259.484 13.3359 260.461 13.7578 261.305 14.3359C262.164 14.9141 262.844 15.6484 263.344 16.5391C263.859 17.4297 264.117 18.5078 264.117 19.7734V33.0156C264.117 33.1562 264.125 33.3125 264.141 33.4844C264.156 33.6562 264.195 33.8125 264.258 33.9531C264.32 34.0937 264.414 34.2109 264.539 34.3047C264.664 34.3984 264.844 34.4453 265.078 34.4453C265.359 34.4453 265.617 34.3437 265.852 34.1406C266.102 33.9219 266.32 33.7031 266.508 33.4844L267.094 33.9766C266.859 34.3047 266.578 34.6641 266.25 35.0547C265.922 35.4453 265.523 35.8125 265.055 36.1562C264.586 36.5 264.039 36.7891 263.414 37.0234C262.789 37.2578 262.078 37.375 261.281 37.375C260.297 37.375 259.422 37.0859 258.656 36.5078C257.891 35.9141 257.391 35.0078 257.156 33.7891C256.656 34.4609 256.133 35.0234 255.586 35.4766C255.055 35.9297 254.508 36.2969 253.945 36.5781C253.383 36.8594 252.812 37.0625 252.234 37.1875C251.672 37.3125 251.102 37.375 250.523 37.375C249.773 37.375 249.047 37.2578 248.344 37.0234C247.641 36.7891 247.008 36.4219 246.445 35.9219C245.898 35.4062 245.453 34.7422 245.109 33.9297C244.781 33.1172 244.617 32.125 244.617 30.9531C244.617 29.5312 244.898 28.3672 245.461 27.4609C246.023 26.5547 246.758 25.7969 247.664 25.1875C248.586 24.5625 249.625 24.0312 250.781 23.5937C251.953 23.1562 253.148 22.6953 254.367 22.2109C255.273 21.8516 255.93 21.3203 256.336 20.6172C256.758 19.8984 256.969 19.1641 256.969 18.4141C256.969 17.2578 256.625 16.3359 255.937 15.6484C255.266 14.9453 254.344 14.5937 253.172 14.5937ZM277.5 34.9375C277.5 35.1406 277.461 35.3828 277.383 35.6641C277.32 35.9453 277.156 36.2109 276.891 36.4609C276.641 36.7109 276.266 36.9219 275.766 37.0937C275.281 37.2812 274.625 37.375 273.797 37.375C272.969 37.375 272.32 37.2734 271.852 37.0703C271.383 36.8828 271.031 36.6562 270.797 36.3906C270.578 36.125 270.437 35.8516 270.375 35.5703C270.328 35.2891 270.305 35.0625 270.305 34.8906V4.65625C270.305 4.20312 270.195 3.8125 269.977 3.48437C269.773 3.14062 269.422 2.96875 268.922 2.96875C268.656 2.96875 268.422 3.01562 268.219 3.10937C268.031 3.1875 267.828 3.3125 267.609 3.48437L267.141 2.92187C267.5 2.625 267.898 2.33594 268.336 2.05469C268.773 1.75781 269.25 1.5 269.766 1.28125C270.297 1.0625 270.859 0.882812 271.453 0.742187C272.047 0.601562 272.672 0.531249 273.328 0.531249C274.344 0.531249 275.133 0.671874 275.695 0.953124C276.258 1.21875 276.672 1.55469 276.937 1.96094C277.203 2.35156 277.359 2.77344 277.406 3.22656C277.469 3.66406 277.5 4.05469 277.5 4.39844V34.9375Z" fill="white"/>
</svg>
