<svg width="279" height="55" viewBox="0 0 279 55" fill="none" xmlns="http://www.w3.org/2000/svg">
<path d="M6.768 54.232C6.064 54.232 5.472 53.992 4.992 53.512C4.544 53.064 4.32 52.488 4.32 51.784V29.896C4.352 27.368 4.944 25.096 6.096 23.08C7.248 21.064 8.816 19.48 10.8 18.328C12.784 17.144 15.024 16.552 17.52 16.552C20.048 16.552 22.304 17.144 24.288 18.328C26.272 19.48 27.84 21.064 28.992 23.08C30.176 25.096 30.768 27.368 30.768 29.896C30.768 32.424 30.224 34.696 29.136 36.712C28.08 38.696 26.624 40.28 24.768 41.464C22.912 42.616 20.816 43.192 18.48 43.192C16.592 43.192 14.848 42.808 13.248 42.04C11.68 41.24 10.336 40.168 9.216 38.824V51.784C9.216 52.488 8.992 53.064 8.544 53.512C8.096 53.992 7.504 54.232 6.768 54.232ZM17.52 38.872C19.152 38.872 20.608 38.488 21.888 37.72C23.168 36.92 24.176 35.848 24.912 34.504C25.68 33.128 26.064 31.592 26.064 29.896C26.064 28.168 25.68 26.632 24.912 25.288C24.176 23.912 23.168 22.84 21.888 22.072C20.608 21.272 19.152 20.872 17.52 20.872C15.92 20.872 14.464 21.272 13.152 22.072C11.872 22.84 10.864 23.912 10.128 25.288C9.392 26.632 9.024 28.168 9.024 29.896C9.024 31.592 9.392 33.128 10.128 34.504C10.864 35.848 11.872 36.92 13.152 37.72C14.464 38.488 15.92 38.872 17.52 38.872ZM40.998 43C40.294 43 39.702 42.776 39.222 42.328C38.774 41.848 38.55 41.256 38.55 40.552V19.192C38.55 18.456 38.774 17.864 39.222 17.416C39.702 16.968 40.294 16.744 40.998 16.744C41.734 16.744 42.326 16.968 42.774 17.416C43.222 17.864 43.446 18.456 43.446 19.192V40.552C43.446 41.256 43.222 41.848 42.774 42.328C42.326 42.776 41.734 43 40.998 43ZM40.998 12.472C40.134 12.472 39.382 12.168 38.742 11.56C38.134 10.92 37.83 10.168 37.83 9.304C37.83 8.44 38.134 7.704 38.742 7.096C39.382 6.456 40.134 6.136 40.998 6.136C41.862 6.136 42.598 6.456 43.206 7.096C43.846 7.704 44.166 8.44 44.166 9.304C44.166 10.168 43.846 10.92 43.206 11.56C42.598 12.168 41.862 12.472 40.998 12.472ZM64.4584 43.192C61.8984 43.192 59.6104 42.616 57.5944 41.464C55.6104 40.28 54.0424 38.696 52.8904 36.712C51.7704 34.696 51.2104 32.424 51.2104 29.896C51.2104 27.304 51.7704 25 52.8904 22.984C54.0104 20.968 55.5464 19.4 57.4984 18.28C59.4504 17.128 61.6904 16.552 64.2184 16.552C67.9944 16.552 71.1304 17.992 73.6264 20.872C74.0744 21.384 74.2344 21.912 74.1064 22.456C73.9784 23 73.6264 23.48 73.0504 23.896C72.6024 24.216 72.1064 24.328 71.5624 24.232C71.0184 24.104 70.5224 23.816 70.0744 23.368C68.5064 21.704 66.5544 20.872 64.2184 20.872C61.7544 20.872 59.7544 21.704 58.2184 23.368C56.6824 25 55.9144 27.176 55.9144 29.896C55.9144 31.624 56.2664 33.16 56.9704 34.504C57.7064 35.848 58.7144 36.92 59.9944 37.72C61.2744 38.488 62.7624 38.872 64.4584 38.872C66.6344 38.872 68.3944 38.312 69.7384 37.192C70.2504 36.776 70.7784 36.552 71.3224 36.52C71.8664 36.456 72.3464 36.6 72.7624 36.952C73.3064 37.4 73.6104 37.912 73.6744 38.488C73.7384 39.032 73.5464 39.528 73.0984 39.976C70.7944 42.12 67.9144 43.192 64.4584 43.192ZM90.9345 43C89.3345 43 87.8945 42.6 86.6145 41.8C85.3345 40.968 84.3265 39.848 83.5905 38.44C82.8545 37.032 82.4865 35.448 82.4865 33.688V21.832H80.2785C79.6065 21.832 79.0625 21.64 78.6465 21.256C78.2305 20.872 78.0225 20.392 78.0225 19.816C78.0225 19.176 78.2305 18.664 78.6465 18.28C79.0625 17.896 79.6065 17.704 80.2785 17.704H82.4865V10.792C82.4865 10.088 82.7105 9.512 83.1585 9.064C83.6065 8.616 84.1825 8.392 84.8865 8.392C85.5905 8.392 86.1665 8.616 86.6145 9.064C87.0625 9.512 87.2865 10.088 87.2865 10.792V17.704H91.3665C92.0385 17.704 92.5825 17.896 92.9985 18.28C93.4145 18.664 93.6225 19.176 93.6225 19.816C93.6225 20.392 93.4145 20.872 92.9985 21.256C92.5825 21.64 92.0385 21.832 91.3665 21.832H87.2865V33.688C87.2865 34.968 87.6385 36.04 88.3425 36.904C89.0465 37.768 89.9105 38.2 90.9345 38.2H92.5665C93.1425 38.2 93.6225 38.424 94.0065 38.872C94.4225 39.32 94.6305 39.896 94.6305 40.6C94.6305 41.304 94.3585 41.88 93.8145 42.328C93.3025 42.776 92.6305 43 91.7985 43H90.9345ZM112.552 43.192C109.96 43.192 107.672 42.632 105.688 41.512C103.704 40.36 102.136 38.792 100.984 36.808C99.8641 34.792 99.3041 32.488 99.3041 29.896C99.3041 27.272 99.8641 24.968 100.984 22.984C102.136 20.968 103.704 19.4 105.688 18.28C107.672 17.128 109.96 16.552 112.552 16.552C115.112 16.552 117.384 17.128 119.368 18.28C121.352 19.4 122.904 20.968 124.024 22.984C125.176 24.968 125.752 27.272 125.752 29.896C125.752 32.488 125.192 34.792 124.072 36.808C122.952 38.792 121.4 40.36 119.416 41.512C117.432 42.632 115.144 43.192 112.552 43.192ZM112.552 38.872C114.216 38.872 115.688 38.488 116.968 37.72C118.248 36.952 119.24 35.896 119.944 34.552C120.68 33.208 121.048 31.656 121.048 29.896C121.048 28.136 120.68 26.584 119.944 25.24C119.24 23.864 118.248 22.792 116.968 22.024C115.688 21.256 114.216 20.872 112.552 20.872C110.888 20.872 109.416 21.256 108.136 22.024C106.856 22.792 105.848 23.864 105.112 25.24C104.376 26.584 104.008 28.136 104.008 29.896C104.008 31.656 104.376 33.208 105.112 34.552C105.848 35.896 106.856 36.952 108.136 37.72C109.416 38.488 110.888 38.872 112.552 38.872ZM146.239 43.192C143.743 43.192 141.503 42.616 139.519 41.464C137.535 40.28 135.967 38.68 134.815 36.664C133.663 34.648 133.071 32.376 133.039 29.848V7.96C133.039 7.224 133.263 6.632 133.711 6.184C134.191 5.736 134.783 5.512 135.487 5.512C136.223 5.512 136.815 5.736 137.263 6.184C137.711 6.632 137.935 7.224 137.935 7.96V20.92C139.055 19.576 140.399 18.52 141.967 17.752C143.567 16.952 145.311 16.552 147.199 16.552C149.535 16.552 151.631 17.144 153.487 18.328C155.343 19.48 156.799 21.064 157.855 23.08C158.943 25.064 159.487 27.32 159.487 29.848C159.487 32.376 158.895 34.648 157.711 36.664C156.559 38.68 154.991 40.28 153.007 41.464C151.023 42.616 148.767 43.192 146.239 43.192ZM146.239 38.872C147.871 38.872 149.327 38.488 150.607 37.72C151.887 36.92 152.895 35.832 153.631 34.456C154.399 33.08 154.783 31.544 154.783 29.848C154.783 28.12 154.399 26.584 153.631 25.24C152.895 23.896 151.887 22.84 150.607 22.072C149.327 21.272 147.871 20.872 146.239 20.872C144.639 20.872 143.183 21.272 141.871 22.072C140.591 22.84 139.583 23.896 138.847 25.24C138.111 26.584 137.743 28.12 137.743 29.848C137.743 31.544 138.111 33.08 138.847 34.456C139.583 35.832 140.591 36.92 141.871 37.72C143.183 38.488 144.639 38.872 146.239 38.872ZM178.693 43.192C176.101 43.192 173.813 42.632 171.829 41.512C169.845 40.36 168.277 38.792 167.125 36.808C166.005 34.792 165.445 32.488 165.445 29.896C165.445 27.272 166.005 24.968 167.125 22.984C168.277 20.968 169.845 19.4 171.829 18.28C173.813 17.128 176.101 16.552 178.693 16.552C181.253 16.552 183.525 17.128 185.509 18.28C187.493 19.4 189.045 20.968 190.165 22.984C191.317 24.968 191.893 27.272 191.893 29.896C191.893 32.488 191.333 34.792 190.213 36.808C189.093 38.792 187.541 40.36 185.557 41.512C183.573 42.632 181.285 43.192 178.693 43.192ZM178.693 38.872C180.357 38.872 181.829 38.488 183.109 37.72C184.389 36.952 185.381 35.896 186.085 34.552C186.821 33.208 187.189 31.656 187.189 29.896C187.189 28.136 186.821 26.584 186.085 25.24C185.381 23.864 184.389 22.792 183.109 22.024C181.829 21.256 180.357 20.872 178.693 20.872C177.029 20.872 175.557 21.256 174.277 22.024C172.997 22.792 171.989 23.864 171.253 25.24C170.517 26.584 170.149 28.136 170.149 29.896C170.149 31.656 170.517 33.208 171.253 34.552C171.989 35.896 172.997 36.952 174.277 37.72C175.557 38.488 177.029 38.872 178.693 38.872ZM211.083 43.192C208.491 43.192 206.203 42.632 204.219 41.512C202.235 40.36 200.667 38.792 199.515 36.808C198.395 34.792 197.835 32.488 197.835 29.896C197.835 27.272 198.395 24.968 199.515 22.984C200.667 20.968 202.235 19.4 204.219 18.28C206.203 17.128 208.491 16.552 211.083 16.552C213.643 16.552 215.915 17.128 217.899 18.28C219.883 19.4 221.435 20.968 222.555 22.984C223.707 24.968 224.283 27.272 224.283 29.896C224.283 32.488 223.723 34.792 222.603 36.808C221.483 38.792 219.931 40.36 217.947 41.512C215.963 42.632 213.675 43.192 211.083 43.192ZM211.083 38.872C212.747 38.872 214.219 38.488 215.499 37.72C216.779 36.952 217.771 35.896 218.475 34.552C219.211 33.208 219.579 31.656 219.579 29.896C219.579 28.136 219.211 26.584 218.475 25.24C217.771 23.864 216.779 22.792 215.499 22.024C214.219 21.256 212.747 20.872 211.083 20.872C209.419 20.872 207.947 21.256 206.667 22.024C205.387 22.792 204.379 23.864 203.643 25.24C202.907 26.584 202.539 28.136 202.539 29.896C202.539 31.656 202.907 33.208 203.643 34.552C204.379 35.896 205.387 36.952 206.667 37.72C207.947 38.488 209.419 38.872 211.083 38.872ZM233.922 43C233.218 43 232.642 42.792 232.194 42.376C231.778 41.928 231.57 41.352 231.57 40.648V7.864C231.57 7.16 231.778 6.6 232.194 6.184C232.642 5.736 233.218 5.512 233.922 5.512C234.626 5.512 235.186 5.736 235.602 6.184C236.05 6.6 236.274 7.16 236.274 7.864V27.4L247.938 16.984C248.418 16.536 248.946 16.328 249.522 16.36C250.13 16.392 250.642 16.648 251.058 17.128C251.506 17.608 251.714 18.136 251.682 18.712C251.65 19.288 251.394 19.8 250.914 20.248L242.082 28.12L251.394 39.544C251.81 40.056 251.986 40.616 251.922 41.224C251.89 41.8 251.602 42.312 251.058 42.76C250.546 43.176 249.97 43.352 249.33 43.288C248.722 43.256 248.21 42.984 247.794 42.472L238.674 31.192L236.274 33.304V40.648C236.274 41.352 236.05 41.928 235.602 42.376C235.186 42.792 234.626 43 233.922 43Z" fill="white"/>
<path d="M274 15V5H260V15H274ZM258 3.993C258 3.445 258.445 3 258.993 3H275.007C275.555 3 276 3.445 276 3.993V20.007C276 20.2703 275.895 20.5227 275.709 20.7089C275.523 20.895 275.27 20.9997 275.007 21H258.993C258.73 20.9997 258.477 20.895 258.291 20.7089C258.105 20.5227 258 20.2703 258 20.007V3.993ZM267 12C267.53 12 268.039 11.7893 268.414 11.4142C268.789 11.0391 269 10.5304 269 10C269 9.46957 268.789 8.96086 268.414 8.58579C268.039 8.21071 267.53 8 267 8C266.47 8 265.961 8.21071 265.586 8.58579C265.211 8.96086 265 9.46957 265 10C265 10.5304 265.211 11.0391 265.586 11.4142C265.961 11.7893 266.47 12 267 12ZM267 14C265.939 14 264.922 13.5786 264.172 12.8284C263.421 12.0783 263 11.0609 263 10C263 8.93913 263.421 7.92172 264.172 7.17157C264.922 6.42143 265.939 6 267 6C268.061 6 269.078 6.42143 269.828 7.17157C270.579 7.92172 271 8.93913 271 10C271 11.0609 270.579 12.0783 269.828 12.8284C269.078 13.5786 268.061 14 267 14ZM261 6H263V8H261V6ZM261 17V19H273V17H261Z" fill="white"/>
</svg>
