<svg width="229" height="37" viewBox="0 0 229 37" fill="none" xmlns="http://www.w3.org/2000/svg">
<rect x="13" y="8.94995" width="212" height="25.3583" fill="#D5F6F6"/>
<path d="M1.2 8.456C1.136 8.184 1.08 7.808 1.032 7.328C0.984 6.832 0.944 6.32 0.912 5.792C0.88 5.248 0.856 4.76 0.84 4.328C0.824 3.88 0.816 3.56 0.816 3.368C2.64 3.256 4.72 3.152 7.056 3.056C9.392 2.96 11.752 2.912 14.136 2.912C15.88 2.912 17.584 2.952 19.248 3.032C20.912 3.096 22.432 3.216 23.808 3.392C23.84 4.352 23.824 5.28 23.76 6.176C23.696 7.056 23.624 7.736 23.544 8.216C23.208 8.2 22.712 8.192 22.056 8.192C21.4 8.176 20.672 8.16 19.872 8.144C19.072 8.128 18.272 8.12 17.472 8.12C16.672 8.104 15.976 8.096 15.384 8.096C15.4 8.688 15.424 9.584 15.456 10.784C15.504 11.984 15.552 13.376 15.6 14.96C15.664 16.528 15.728 18.184 15.792 19.928C15.856 21.672 15.912 23.392 15.96 25.088C16.024 26.768 16.08 28.312 16.128 29.72C16.192 31.128 16.24 32.296 16.272 33.224C16.304 34.152 16.328 34.72 16.344 34.928C15.864 35.008 15.232 35.08 14.448 35.144C13.664 35.208 12.88 35.256 12.096 35.288C11.328 35.32 10.712 35.336 10.248 35.336C10.2 34.376 10.152 33.176 10.104 31.736C10.056 30.296 10.008 28.72 9.96 27.008C9.928 25.296 9.896 23.536 9.864 21.728C9.832 19.92 9.808 18.168 9.792 16.472C9.776 14.76 9.768 13.208 9.768 11.816C9.768 11.096 9.768 10.432 9.768 9.824C9.784 9.2 9.792 8.648 9.792 8.168C9.2 8.2 8.52 8.232 7.752 8.264C7 8.28 6.224 8.304 5.424 8.336C4.64 8.368 3.88 8.392 3.144 8.408C2.424 8.424 1.776 8.44 1.2 8.456ZM37.2052 35.672C32.9972 35.672 29.8692 34.52 27.8212 32.216C25.7732 29.912 24.7492 26.584 24.7492 22.232C24.7492 19.432 25.2772 17.08 26.3332 15.176C27.3892 13.272 28.8612 11.832 30.7492 10.856C32.6372 9.864 34.8292 9.368 37.3252 9.368C39.9332 9.368 42.0932 9.976 43.8052 11.192C45.5172 12.392 46.7892 14.064 47.6212 16.208C48.4532 18.336 48.8692 20.816 48.8692 23.648C48.8692 26.08 48.4132 28.2 47.5012 30.008C46.5892 31.8 45.2612 33.192 43.5172 34.184C41.7732 35.176 39.6692 35.672 37.2052 35.672ZM36.9892 30.512C38.1412 30.512 39.1412 30.304 39.9892 29.888C40.8372 29.456 41.5332 28.88 42.0772 28.16C42.6212 27.424 43.0212 26.592 43.2772 25.664C43.5492 24.736 43.6852 23.768 43.6852 22.76C43.6852 21 43.4372 19.44 42.9412 18.08C42.4612 16.704 41.7252 15.632 40.7332 14.864C39.7572 14.08 38.5252 13.688 37.0372 13.688C35.5172 13.688 34.2532 14.064 33.2452 14.816C32.2532 15.552 31.5092 16.552 31.0132 17.816C30.5332 19.064 30.2932 20.472 30.2932 22.04C30.2932 24.52 30.8612 26.552 31.9972 28.136C33.1332 29.72 34.7972 30.512 36.9892 30.512ZM71.2822 16.112C71.3942 16.848 71.4582 17.664 71.4742 18.56C71.5062 19.456 71.5142 20.224 71.4982 20.864C70.6502 20.864 69.5782 20.88 68.2822 20.912C66.9862 20.928 65.5782 20.96 64.0582 21.008C62.5382 21.04 61.0102 21.08 59.4742 21.128C57.9542 21.176 56.5302 21.232 55.2022 21.296C53.8902 21.344 52.8022 21.392 51.9382 21.44C51.9222 21.12 51.9222 20.72 51.9382 20.24C51.9542 19.76 51.9782 19.272 52.0102 18.776C52.0422 18.28 52.0742 17.824 52.1062 17.408C52.1542 16.992 52.1942 16.68 52.2262 16.472C53.7302 16.296 55.4342 16.152 57.3382 16.04C59.2422 15.912 61.2022 15.848 63.2182 15.848C64.9302 15.848 66.4662 15.864 67.8262 15.896C69.2022 15.928 70.3542 16 71.2822 16.112ZM92.4607 34.928C92.4447 34.672 92.4287 34.296 92.4127 33.8C92.4127 33.288 92.4047 32.776 92.3887 32.264C92.3887 31.752 92.3887 31.368 92.3887 31.112C92.2447 31.336 91.9727 31.656 91.5727 32.072C91.1887 32.488 90.6607 32.92 89.9887 33.368C89.3167 33.8 88.4767 34.168 87.4687 34.472C86.4607 34.776 85.2687 34.928 83.8927 34.928C81.7807 34.928 79.9727 34.456 78.4687 33.512C76.9807 32.552 75.8447 31.232 75.0607 29.552C74.2767 27.872 73.8847 25.944 73.8847 23.768C73.8847 21.704 74.2767 19.776 75.0607 17.984C75.8607 16.192 77.0607 14.744 78.6607 13.64C80.2607 12.536 82.2527 11.984 84.6367 11.984C86.0127 11.984 87.2367 12.136 88.3087 12.44C89.3807 12.744 90.2847 13.112 91.0207 13.544C91.7567 13.96 92.2847 14.352 92.6047 14.72C92.6367 13.968 92.6847 13.056 92.7487 11.984C92.8287 10.896 92.9087 9.768 92.9887 8.6C93.0847 7.416 93.1727 6.28 93.2527 5.192C93.3327 4.088 93.4047 3.128 93.4687 2.312C93.5487 1.496 93.6127 0.935998 93.6607 0.631999C94.3967 0.631999 95.2127 0.671999 96.1087 0.751999C97.0207 0.815998 97.8047 0.927998 98.4607 1.088C98.1887 4.8 97.9727 8.504 97.8127 12.2C97.6687 15.896 97.5647 19.632 97.5007 23.408C97.4527 27.184 97.4287 31.072 97.4287 35.072C97.1407 35.072 96.6687 35.064 96.0127 35.048C95.3567 35.048 94.6927 35.032 94.0207 35C93.3487 34.984 92.8287 34.96 92.4607 34.928ZM85.3087 29.672C86.2847 29.672 87.1567 29.536 87.9247 29.264C88.7087 28.992 89.3807 28.648 89.9407 28.232C90.5167 27.816 90.9967 27.4 91.3807 26.984C91.7647 26.552 92.0607 26.192 92.2687 25.904C92.2687 25.536 92.2687 25.04 92.2687 24.416C92.2687 23.792 92.2687 23.136 92.2687 22.448C92.2847 21.744 92.2927 21.096 92.2927 20.504C92.3087 19.896 92.3247 19.44 92.3407 19.136C91.9887 18.8 91.4607 18.448 90.7567 18.08C90.0687 17.712 89.2687 17.4 88.3567 17.144C87.4607 16.872 86.5167 16.736 85.5247 16.736C83.4767 16.736 81.9007 17.344 80.7967 18.56C79.7087 19.76 79.1647 21.368 79.1647 23.384C79.1647 25.448 79.6927 27.016 80.7487 28.088C81.8207 29.144 83.3407 29.672 85.3087 29.672ZM115.58 35.672C111.372 35.672 108.244 34.52 106.196 32.216C104.148 29.912 103.124 26.584 103.124 22.232C103.124 19.432 103.652 17.08 104.708 15.176C105.764 13.272 107.236 11.832 109.124 10.856C111.012 9.864 113.204 9.368 115.7 9.368C118.308 9.368 120.468 9.976 122.18 11.192C123.892 12.392 125.164 14.064 125.996 16.208C126.828 18.336 127.244 20.816 127.244 23.648C127.244 26.08 126.788 28.2 125.876 30.008C124.964 31.8 123.636 33.192 121.892 34.184C120.148 35.176 118.044 35.672 115.58 35.672ZM115.364 30.512C116.516 30.512 117.516 30.304 118.364 29.888C119.212 29.456 119.908 28.88 120.452 28.16C120.996 27.424 121.396 26.592 121.652 25.664C121.924 24.736 122.06 23.768 122.06 22.76C122.06 21 121.812 19.44 121.316 18.08C120.836 16.704 120.1 15.632 119.108 14.864C118.132 14.08 116.9 13.688 115.412 13.688C113.892 13.688 112.628 14.064 111.62 14.816C110.628 15.552 109.884 16.552 109.388 17.816C108.908 19.064 108.668 20.472 108.668 22.04C108.668 24.52 109.236 26.552 110.372 28.136C111.508 29.72 113.172 30.512 115.364 30.512ZM147.215 34.592C147.279 33.712 147.327 32.512 147.359 30.992C147.407 29.456 147.439 27.736 147.455 25.832C147.487 23.928 147.503 21.952 147.503 19.904C147.503 17.872 147.487 15.864 147.455 13.88C147.439 11.88 147.407 10.032 147.359 8.336C147.327 6.64 147.279 5.224 147.215 4.088C147.551 4.04 148.071 3.992 148.775 3.944C149.495 3.88 150.223 3.848 150.959 3.848C151.391 3.848 151.871 3.864 152.399 3.896C152.943 3.912 153.311 3.944 153.503 3.992C153.551 5.032 153.583 6.296 153.599 7.784C153.615 9.272 153.615 10.888 153.599 12.632C153.599 14.376 153.575 16.176 153.527 18.032C153.495 19.872 153.447 21.672 153.383 23.432C153.367 24.536 153.335 25.568 153.287 26.528C153.255 27.488 153.207 28.264 153.143 28.856C154.311 28.792 155.567 28.728 156.911 28.664C158.255 28.6 159.631 28.552 161.039 28.52C162.447 28.472 163.815 28.448 165.143 28.448C165.191 28.8 165.223 29.312 165.239 29.984C165.271 30.656 165.287 31.368 165.287 32.12C165.303 32.856 165.303 33.496 165.287 34.04C163.463 34.248 161.671 34.408 159.911 34.52C158.167 34.632 156.511 34.704 154.943 34.736C153.551 34.768 152.207 34.768 150.911 34.736C149.615 34.704 148.383 34.656 147.215 34.592ZM176.541 35C176.285 35.016 175.869 35.04 175.293 35.072C174.733 35.12 174.141 35.144 173.517 35.144C173.021 35.144 172.525 35.128 172.029 35.096C171.549 35.064 171.085 35.016 170.637 34.952C170.701 34.536 170.781 33.68 170.877 32.384C170.973 31.088 171.069 29.552 171.165 27.776C171.277 26 171.373 24.168 171.453 22.28C171.549 20.376 171.621 18.608 171.669 16.976C171.717 15.328 171.741 14.008 171.741 13.016C171.965 13 172.309 12.984 172.773 12.968C173.253 12.936 173.765 12.912 174.309 12.896C174.853 12.864 175.373 12.84 175.869 12.824C176.365 12.808 176.749 12.8 177.021 12.8C177.085 13.264 177.133 13.976 177.165 14.936C177.213 15.896 177.237 16.968 177.237 18.152C177.237 19.64 177.221 21.248 177.189 22.976C177.157 24.688 177.109 26.36 177.045 27.992C176.981 29.624 176.901 31.072 176.805 32.336C176.725 33.584 176.637 34.472 176.541 35ZM174.669 9.272C173.453 9.272 172.469 8.912 171.717 8.192C170.965 7.472 170.589 6.552 170.589 5.432C170.589 4.632 170.773 3.952 171.141 3.392C171.509 2.816 171.989 2.384 172.581 2.096C173.189 1.792 173.829 1.64 174.501 1.64C175.605 1.64 176.501 2.016 177.189 2.768C177.877 3.52 178.221 4.464 178.221 5.6C178.221 6.608 177.893 7.472 177.237 8.192C176.581 8.912 175.725 9.272 174.669 9.272ZM193.662 36.92C192.046 36.92 190.486 36.704 188.982 36.272C187.494 35.856 186.166 35.312 184.998 34.64C183.83 33.968 182.926 33.264 182.286 32.528C182.382 32.288 182.55 31.944 182.79 31.496C183.03 31.032 183.302 30.544 183.606 30.032C183.91 29.52 184.214 29.048 184.518 28.616C184.838 28.168 185.118 27.832 185.358 27.608C186.062 28.344 186.886 29.056 187.83 29.744C188.774 30.432 189.766 30.992 190.806 31.424C191.862 31.84 192.894 32.048 193.902 32.048C194.814 32.048 195.638 31.92 196.374 31.664C197.126 31.392 197.718 31.008 198.15 30.512C198.598 30 198.822 29.384 198.822 28.664C198.822 27.832 198.526 27.096 197.934 26.456C197.342 25.8 196.558 25.216 195.582 24.704C194.622 24.192 193.566 23.72 192.414 23.288C190.99 22.744 189.686 22.144 188.502 21.488C187.318 20.816 186.366 19.984 185.646 18.992C184.926 17.984 184.566 16.712 184.566 15.176C184.566 13.624 185.014 12.328 185.91 11.288C186.822 10.232 188.006 9.44 189.462 8.912C190.934 8.368 192.51 8.096 194.19 8.096C195.982 8.096 197.678 8.336 199.278 8.816C200.878 9.28 202.142 9.856 203.07 10.544C202.99 10.832 202.83 11.224 202.59 11.72C202.35 12.216 202.062 12.736 201.726 13.28C201.406 13.824 201.062 14.312 200.694 14.744C199.974 14.216 199.078 13.712 198.006 13.232C196.934 12.752 195.782 12.512 194.55 12.512C193.798 12.512 193.062 12.6 192.342 12.776C191.638 12.952 191.054 13.24 190.59 13.64C190.142 14.04 189.918 14.592 189.918 15.296C189.918 15.92 190.15 16.472 190.614 16.952C191.078 17.432 191.71 17.872 192.51 18.272C193.326 18.672 194.262 19.072 195.318 19.472C196.502 19.888 197.63 20.368 198.702 20.912C199.79 21.456 200.75 22.088 201.582 22.808C202.414 23.512 203.07 24.328 203.55 25.256C204.03 26.184 204.27 27.24 204.27 28.424C204.27 30.312 203.79 31.888 202.83 33.152C201.87 34.4 200.59 35.336 198.99 35.96C197.39 36.6 195.614 36.92 193.662 36.92ZM226.198 30.968C225.926 31.672 225.518 32.416 224.974 33.2C224.43 33.984 223.694 34.648 222.766 35.192C221.838 35.752 220.662 36.032 219.238 36.032C217.398 36.032 215.918 35.632 214.798 34.832C213.694 34.032 212.894 32.984 212.398 31.688C211.918 30.376 211.678 28.952 211.678 27.416C211.678 26.584 211.686 25.648 211.702 24.608C211.734 23.568 211.766 22.496 211.798 21.392C211.83 20.288 211.862 19.232 211.894 18.224C211.942 17.216 211.982 16.328 212.014 15.56C212.046 14.776 212.07 14.192 212.086 13.808C210.63 13.952 209.334 14.112 208.198 14.288C207.078 14.464 206.342 14.592 205.99 14.672C205.878 14.048 205.79 13.392 205.726 12.704C205.662 12 205.614 11.384 205.582 10.856C205.566 10.312 205.558 9.96 205.558 9.8C206.454 9.672 207.478 9.544 208.63 9.416C209.782 9.288 210.942 9.192 212.11 9.128C212.11 8.568 212.102 7.848 212.086 6.968C212.086 6.088 212.078 5.264 212.062 4.496C212.062 3.84 212.038 3.2 211.99 2.576C211.942 1.936 211.894 1.408 211.846 0.991999L217.246 0.607998C217.262 0.847998 217.286 1.384 217.318 2.216C217.35 3.048 217.366 4.056 217.366 5.24C217.366 5.736 217.366 6.32 217.366 6.992C217.366 7.648 217.366 8.256 217.366 8.816C217.878 8.784 218.486 8.752 219.19 8.72C219.894 8.688 220.454 8.672 220.87 8.672C221.606 8.64 222.294 8.624 222.934 8.624C223.574 8.624 224.118 8.632 224.566 8.648C225.014 8.664 225.294 8.672 225.406 8.672C225.486 9.216 225.542 9.944 225.574 10.856C225.606 11.752 225.622 12.512 225.622 13.136C225.462 13.12 224.918 13.12 223.99 13.136C223.078 13.136 222.174 13.144 221.278 13.16C220.654 13.176 219.958 13.208 219.19 13.256C218.422 13.304 217.79 13.344 217.294 13.376C217.278 13.776 217.246 14.344 217.198 15.08C217.166 15.816 217.134 16.648 217.102 17.576C217.086 18.488 217.062 19.424 217.03 20.384C216.998 21.328 216.974 22.224 216.958 23.072C216.942 23.92 216.934 24.624 216.934 25.184C216.934 26.208 216.99 27.168 217.102 28.064C217.214 28.944 217.478 29.664 217.894 30.224C218.326 30.768 218.998 31.04 219.91 31.04C220.534 31.04 221.038 30.832 221.422 30.416C221.822 30 222.134 29.52 222.358 28.976C222.598 28.432 222.782 27.968 222.91 27.584C223.07 27.776 223.31 28.04 223.63 28.376C223.95 28.712 224.286 29.064 224.638 29.432C225.006 29.784 225.334 30.104 225.622 30.392C225.91 30.68 226.102 30.872 226.198 30.968Z" fill="#394149"/>
</svg>
